<?xml version="1.0" standalone="no"?>
<!DOCTYPE svg PUBLIC "-//W3C//DTD SVG 20010904//EN"
 "http://www.w3.org/TR/2001/REC-SVG-20010904/DTD/svg10.dtd">
<svg version="1.0" xmlns="http://www.w3.org/2000/svg"
 width="961.000000pt" height="961.000000pt" viewBox="0 0 961.000000 961.000000"
 preserveAspectRatio="xMidYMid meet">
<metadata>
Created by potrace 1.11, written by Peter Selinger 2001-2013
</metadata>
<g transform="translate(0.000000,961.000000) scale(0.100000,-0.100000)"
fill="#000000" stroke="none">
<path d="M1368 9139 c-5 -3 -7 -28 -4 -55 3 -27 8 -91 11 -142 4 -52 8 -101
10 -111 1 -9 6 -64 10 -123 3 -59 8 -119 10 -135 2 -15 6 -71 10 -123 3 -52 8
-106 10 -120 2 -14 6 -68 10 -120 4 -52 8 -111 10 -130 2 -19 7 -80 11 -135 4
-55 8 -113 10 -130 1 -16 5 -66 8 -110 3 -44 8 -98 10 -120 2 -22 7 -83 11
-135 3 -52 8 -106 10 -120 2 -14 7 -65 10 -115 2 -49 7 -106 9 -125 3 -19 8
-80 11 -135 3 -55 8 -122 10 -150 5 -52 11 -118 20 -245 3 -41 8 -97 10 -125
2 -27 7 -86 10 -130 3 -44 8 -98 10 -120 2 -22 7 -76 10 -120 3 -44 8 -105 10
-135 3 -30 7 -84 10 -120 8 -94 14 -165 20 -250 3 -41 8 -95 10 -120 3 -25 7
-85 10 -135 4 -49 8 -106 10 -125 2 -19 7 -69 10 -110 3 -41 10 -129 15 -195
6 -66 13 -151 16 -190 3 -38 7 -90 9 -115 2 -25 6 -83 10 -130 3 -47 8 -101
10 -120 2 -19 7 -71 10 -115 3 -44 7 -105 10 -135 12 -138 15 -180 20 -255 3
-44 7 -98 10 -120 2 -22 7 -80 11 -130 3 -49 8 -103 10 -120 2 -16 6 -75 9
-130 4 -55 8 -107 10 -115 2 -8 7 -64 11 -125 3 -60 8 -117 9 -126 2 -9 6 -65
10 -125 4 -60 8 -116 10 -124 2 -8 6 -60 10 -115 3 -55 8 -116 10 -135 2 -19
7 -75 10 -125 3 -49 8 -106 10 -125 4 -33 8 -84 20 -252 3 -40 8 -93 10 -118
2 -25 7 -79 10 -120 3 -41 8 -100 10 -130 3 -30 7 -84 10 -120 13 -176 16
-207 30 -355 6 -61 14 -167 21 -260 2 -38 6 -88 9 -110 2 -22 7 -85 11 -140 3
-55 8 -107 10 -115 1 -8 3 -25 3 -36 l1 -22 2788 0 c2084 0 2789 3 2789 12 0
6 3 40 7 76 3 36 8 99 11 140 3 41 8 95 10 120 3 25 7 83 10 130 4 46 8 104
11 129 2 25 6 70 9 100 2 31 6 81 9 111 3 30 8 87 11 125 10 138 16 211 20
265 5 57 10 124 20 245 3 39 8 93 10 120 3 28 7 82 10 120 3 39 8 97 10 130 3
33 7 89 10 125 3 36 7 92 10 125 9 108 34 418 40 500 7 91 11 138 20 245 12
150 14 176 20 255 3 44 8 105 10 135 8 96 14 173 20 245 3 39 8 93 10 120 2
28 7 79 9 115 15 181 25 308 31 385 3 28 9 113 15 190 6 77 13 163 15 190 3
28 7 84 10 125 11 144 15 195 20 245 5 47 7 74 20 250 5 71 12 160 20 250 5
63 13 159 20 250 3 39 7 93 10 120 2 28 7 86 10 130 3 44 8 100 10 125 3 25 7
77 10 115 3 39 10 126 15 195 6 69 12 161 15 205 3 44 7 103 10 130 2 28 7 82
10 120 3 39 7 102 11 140 5 68 8 102 19 255 3 41 8 89 10 105 2 17 7 75 10
130 4 55 9 118 11 140 2 22 6 78 9 125 3 47 8 101 10 120 4 34 9 94 20 245 3
39 7 93 10 120 9 106 23 285 30 385 3 44 13 157 19 213 3 25 1 27 -33 28 -288
4 -6926 2 -6933 -2z"/>
</g>
</svg>
